<?xml version="1.0" encoding="utf-8"?>
<!-- Generator: Adobe Illustrator 19.0.0, SVG Export Plug-In . SVG Version: 6.00 Build 0)  -->
<svg version="1.1" id="Layer_1" xmlns="http://www.w3.org/2000/svg" xmlns:xlink="http://www.w3.org/1999/xlink" x="0px" y="0px"
	 viewBox="-265 357 80 80" style="enable-background:new -265 357 80 80;" xml:space="preserve">
<style type="text/css">
	.st0{fill:#323232;}
</style>
<g>
	<g>
		<g>
			<path class="st0" d="M-263,413.4v-32.8c0-11.9,9.7-21.6,21.6-21.6h32.8c11.9,0,21.6,9.7,21.6,21.6v32.8
				c0,11.9-9.7,21.6-21.6,21.6h-32.8C-253.3,435-263,425.3-263,413.4z M-193.5,380.6c0-8.3-6.8-15.1-15.1-15.1h-32.8
				c-8.3,0-15.1,6.8-15.1,15.1v32.8c0,8.3,6.8,15.1,15.1,15.1h32.8c8.3,0,15.1-6.8,15.1-15.1V380.6z"/>
		</g>
		<g>
			<path class="st0" d="M-244.5,397c0-10.7,8.7-19.5,19.5-19.5c10.7,0,19.5,8.7,19.5,19.5s-8.7,19.5-19.5,19.5
				C-235.7,416.5-244.5,407.7-244.5,397z M-212,397c0-7.1-5.8-13-13-13c-7.1,0-13,5.8-13,13s5.8,13,13,13
				C-217.9,410-212,404.1-212,397z"/>
		</g>
		<g>
			<circle class="st0" cx="-210" cy="412.9" r="4.7"/>
		</g>
	</g>
</g>
</svg>
